<?xml version="1.0" ?><svg data-name="Layer 1" id="Layer_1" viewBox="0 0 512 512" xmlns="http://www.w3.org/2000/svg"><title/><path d="M394.43,150.25a3.87,3.87,0,0,0-2.79-1.19h-16.2a3.87,3.87,0,0,0-3.86,3.58l-7.82,100.72H347.9V194.9A3.87,3.87,0,0,0,344,191H168a3.87,3.87,0,0,0-3.87,3.87v58.46H148.24l-7.82-100.72a3.87,3.87,0,0,0-3.86-3.58h-16.2a3.88,3.88,0,0,0-3.87,4l8.1,206.13a3.87,3.87,0,0,0,3.87,3.72h8.1a3.88,3.88,0,0,0,3.85-3.47l7.73-74.07h16v73.67a3.87,3.87,0,0,0,3.87,3.87h24.3a3.87,3.87,0,0,0,3.87-3.87V285.4H215.8l7.73,74.07a3.87,3.87,0,0,0,3.85,3.47h8.1a3.87,3.87,0,0,0,3.87-3.87V257.23a3.87,3.87,0,0,0-3.87-3.87H196.14V223.07H315.86v30.29H276.52a3.87,3.87,0,0,0-3.87,3.87V359.07a3.87,3.87,0,0,0,3.87,3.87h8.1a3.87,3.87,0,0,0,3.85-3.47l7.73-74.07h19.66v73.67a3.87,3.87,0,0,0,3.87,3.87H344a3.87,3.87,0,0,0,3.87-3.87V285.4h16l7.73,74.07a3.88,3.88,0,0,0,3.85,3.47h8.1a3.87,3.87,0,0,0,3.87-3.72l8.1-206.13A3.88,3.88,0,0,0,394.43,150.25ZM164.1,277.66H144.65a3.87,3.87,0,0,0-3.85,3.47l-7.73,74.06h-.89l-7.79-198.38H133l7.82,100.72a3.88,3.88,0,0,0,3.86,3.58H164.1Zm151.76,0H292.72a3.86,3.86,0,0,0-3.85,3.47l-7.74,74.06h-.74V261.11h35.47Zm-84.25-16.55v94.08h-.74l-7.73-74.06a3.87,3.87,0,0,0-3.85-3.47H196.14V261.11Zm108.55,94.08H323.61v-136a3.88,3.88,0,0,0-3.88-3.87H192.27a3.88,3.88,0,0,0-3.88,3.87v136H171.84V198.78H340.16Zm39.66,0h-.89l-7.73-74.06a3.87,3.87,0,0,0-3.85-3.47H347.9V261.11h19.45a3.88,3.88,0,0,0,3.86-3.58L379,156.81h8.58Z"/></svg>